<?xml version="1.0" encoding="UTF-8" standalone="no"?>
<svg
   viewBox="0 0 1248.896 859.42401"
   height="859.42401"
   width="1248.896"
   xml:space="preserve"
   id="svg2"
   version="1.1"
   sodipodi:docname="email.svg"
   inkscape:version="1.1.2 (b8e25be833, 2022-02-05)"
   xmlns:inkscape="http://www.inkscape.org/namespaces/inkscape"
   xmlns:sodipodi="http://sodipodi.sourceforge.net/DTD/sodipodi-0.dtd"
   xmlns="http://www.w3.org/2000/svg"
   xmlns:svg="http://www.w3.org/2000/svg"
   xmlns:rdf="http://www.w3.org/1999/02/22-rdf-syntax-ns#"
   xmlns:cc="http://creativecommons.org/ns#"
   xmlns:dc="http://purl.org/dc/elements/1.1/"><sodipodi:namedview
     id="namedview70"
     pagecolor="#ffffff"
     bordercolor="#666666"
     borderopacity="1.0"
     inkscape:pageshadow="2"
     inkscape:pageopacity="0.0"
     inkscape:pagecheckerboard="0"
     showgrid="false"
     width="1248.896px"
     inkscape:zoom="0.486875"
     inkscape:cx="800"
     inkscape:cy="68.806162"
     inkscape:window-width="1920"
     inkscape:window-height="1001"
     inkscape:window-x="-9"
     inkscape:window-y="-9"
     inkscape:window-maximized="1"
     inkscape:current-layer="svg2" /><metadata
     id="metadata8"><rdf:RDF><cc:Work
         rdf:about=""><dc:format>image/svg+xml</dc:format><dc:type
           rdf:resource="http://purl.org/dc/dcmitype/StillImage" /></cc:Work></rdf:RDF></metadata><defs
     id="defs6" /><g
     transform="matrix(1.3333333,0,0,-1.3333333,-171.944,1239.424)"
     id="g10"
     style="fill:#ffffff"><g
       transform="scale(0.1)"
       id="g12"
       style="fill:#ffffff"><path
         id="path14"
         style="fill:#ffffff;fill-opacity:1;fill-rule:nonzero;stroke:none"
         d="m 1663.26,8689.16 c 0,51.8 16.61,99.96 45.01,139.89 L 4592.5,6221.91 1705.32,3321.17 c -26.5,39.04 -42.06,85.46 -42.06,135.34 z m 261.57,249.74 h 8096.27 c 3.8,0 7.5,-0.39 11.3,-0.54 l -4059.46,-3669.5 -1144.13,1034.22 -81.73,74.14 -0.14,-0.14 -2833.47,2561.28 c 3.79,0.15 7.52,0.54 11.36,0.54 z M 5972.94,4974.08 7301.52,6175.02 10114.9,3223.68 c -29.1,-10.76 -60.7,-16.91 -93.8,-16.91 H 1924.83 c -7.76,0 -15.39,0.48 -22.98,1.11 L 4755.3,6074.74 Z M 10282.7,8689.16 V 3456.51 c 0,-26.94 -4.7,-52.84 -13,-77.17 L 7464.37,6322.23 10237.6,8829.05 c 28.4,-39.93 45.1,-88.09 45.1,-139.89 z m -261.6,606.52 H 1924.83 c -350.29,0 -635.25,-272.08 -635.25,-606.52 V 3456.51 c 0,-334.44 284.96,-606.51 635.25,-606.51 h 8096.27 c 350.3,0 635.2,272.07 635.2,606.51 v 5232.65 c 0,334.44 -284.9,606.52 -635.2,606.52" /></g></g></svg>
