<?xml version="1.0" encoding="UTF-8" standalone="no"?>
<svg
   version="1.0"
   width="915.16302pt"
   height="351.20499pt"
   viewBox="0 0 915.16302 351.20499"
   preserveAspectRatio="xMidYMid meet"
   id="svg17"
   sodipodi:docname="face.svg"
   inkscape:version="1.1.2 (b8e25be833, 2022-02-05)"
   xmlns:inkscape="http://www.inkscape.org/namespaces/inkscape"
   xmlns:sodipodi="http://sodipodi.sourceforge.net/DTD/sodipodi-0.dtd"
   xmlns="http://www.w3.org/2000/svg"
   xmlns:svg="http://www.w3.org/2000/svg">
  <defs
     id="defs21" />
  <sodipodi:namedview
     id="namedview19"
     pagecolor="#ffffff"
     bordercolor="#666666"
     borderopacity="1.0"
     inkscape:pageshadow="2"
     inkscape:pageopacity="0.0"
     inkscape:pagecheckerboard="0"
     inkscape:document-units="pt"
     showgrid="false"
     width="915.163pt"
     height="351.20499pt"
     inkscape:zoom="0.74494963"
     inkscape:cx="757.76936"
     inkscape:cy="234.24403"
     inkscape:window-width="1920"
     inkscape:window-height="1001"
     inkscape:window-x="-9"
     inkscape:window-y="-9"
     inkscape:window-maximized="1"
     inkscape:current-layer="svg17" />
  <g
     transform="matrix(0.1,0,0,-0.1,-93.025,769.85)"
     fill="#000000"
     stroke="none"
     id="g15"
     style="fill:#000000">
    <path
       d="m 1223,7685 c -140,-38 -235,-130 -280,-270 -17,-51 -17,-169 0,-220 34,-108 112,-200 203,-242 51,-23 282,-72 534,-113 74,-12 185,-32 245,-45 182,-39 456,-93 530,-104 151,-24 287,-49 292,-55 5,-5 -29,-51 -182,-241 -44,-55 -100,-127 -125,-159 -25,-33 -85,-110 -135,-171 -414,-515 -656,-820 -740,-930 -53,-71 -122,-156 -152,-187 -156,-165 -158,-402 -5,-555 121,-121 291,-151 448,-79 77,35 177,135 297,296 100,133 625,792 717,900 25,30 117,145 202,255 86,110 213,272 283,360 167,212 245,331 306,467 59,132 83,231 73,303 -15,116 -68,201 -179,292 -87,70 -108,82 -205,114 -180,58 -321,88 -805,174 -44,8 -105,18 -135,24 -30,5 -100,19 -155,31 -168,35 -391,78 -575,110 -96,17 -211,37 -255,45 -98,18 -135,18 -202,0 z"
       id="path9"
       style="fill:#000000" />
    <path
       d="m 9590,7605 c -166,-47 -766,-386 -1019,-577 -90,-68 -183,-137 -207,-154 -123,-86 -490,-478 -544,-581 -31,-58 -35,-76 -38,-154 -3,-64 1,-102 13,-139 22,-66 111,-200 217,-326 47,-55 108,-132 137,-170 29,-38 150,-174 270,-304 120,-129 265,-289 323,-355 151,-172 323,-341 446,-438 128,-101 168,-122 256,-137 173,-31 343,58 419,218 29,61 32,75 32,167 0,92 -3,106 -31,165 -37,77 -72,115 -179,197 -87,66 -255,234 -380,378 -119,138 -221,250 -326,360 -160,167 -289,321 -289,343 0,28 290,267 470,386 128,86 368,222 555,316 213,107 251,132 295,197 96,146 96,311 -1,457 -84,126 -269,193 -419,151 z"
       id="path11"
       style="fill:#000000" />
    <path
       d="m 4233,6205 c -77,-21 -129,-51 -178,-100 -79,-79 -111,-160 -120,-305 -3,-52 -10,-153 -16,-224 -22,-313 -6,-708 37,-859 63,-226 298,-453 528,-510 120,-30 277,-27 398,8 210,62 423,193 576,354 l 62,66 53,-19 c 28,-10 106,-44 172,-76 107,-53 263,-113 514,-201 75,-26 100,-30 205,-31 147,-2 193,13 312,100 86,64 135,117 212,232 121,184 172,330 212,610 23,160 23,176 4,564 -5,100 -24,162 -68,229 -74,112 -194,177 -326,177 -169,0 -325,-116 -376,-277 -17,-56 -19,-224 -4,-353 15,-131 -28,-432 -63,-446 -17,-6 -208,66 -315,120 -286,143 -534,193 -763,152 -145,-26 -195,-59 -313,-206 -76,-93 -157,-166 -229,-205 -20,-10 -38,-17 -41,-15 -2,3 -6,70 -9,150 -4,129 1,282 18,520 16,214 3,290 -66,394 -83,125 -269,193 -416,151 z"
       id="path13"
       style="fill:#000000" />
  </g>
</svg>
